<?xml version="1.0" encoding="UTF-8"?><svg width="158" height="98" viewBox="0 0 158 98" fill="none" xmlns="http://www.w3.org/2000/svg">
<path d="M129.309 54.5021C130.401 50.8137 130.338 46.8799 129.128 43.2283C127.919 39.5766 125.622 36.3818 122.544 34.0721C120.306 32.4159 117.598 34.381 115.705 35.5552C113.467 37.2608 110.054 38.9911 110.647 42.1304C110.895 47.6179 110.326 53.1673 110.895 58.6302C112.957 60.9919 115.483 62.9059 118.315 64.2537C118.945 64.6539 119.677 64.8664 120.423 64.8664C121.17 64.8664 121.902 64.6539 122.532 64.2537C125.795 61.829 128.175 58.4045 129.309 54.5021Z" fill="#85C225"/>
<path d="M112.96 72.5591C114.778 71.4962 115.434 68.8513 113.542 67.6153C111.219 65.7701 108.656 64.2484 105.924 63.0918C102.659 63.3884 99.8637 65.2053 96.8461 66.2434C95.0529 67.0962 92.6785 67.4794 91.6891 69.2715C90.7987 72.2377 90.9471 75.3523 90.8481 78.3927C92.0848 79.1096 93.3215 80.259 94.9787 79.8635C101.5 79.0105 107.693 76.4951 112.96 72.5591Z" fill="#85C225"/>
<path d="M113.863 30.3896C115.495 29.0548 114.58 26.7683 112.972 25.7919C107.708 21.8772 101.532 19.3676 95.0279 18.4999C93.3583 18.1044 92.1093 19.2291 90.8354 19.9954C90.9715 23.0605 90.8355 26.1751 91.7135 29.166C92.7523 30.8593 95.0155 31.2053 96.7469 32.0952C99.7892 33.1581 102.621 34.9379 105.898 35.2716C108.795 34.0758 111.483 32.4279 113.863 30.3896Z" fill="#85C225"/>
<path d="M85.0356 74.8205C85.1964 72.7442 85.8519 70.5813 85.2706 68.5296C83.3537 66.3173 80.7196 64.7476 78.4317 62.8814C77.0465 61.905 75.3152 60.2612 73.4849 61.2994C70.4295 62.9101 67.4801 64.7141 64.6548 66.7004C64.2648 66.9474 63.9382 67.2823 63.701 67.6782C63.4638 68.074 63.3228 68.5199 63.2891 68.9801C63.2555 69.4403 63.3301 69.902 63.5072 70.3281C63.6842 70.7543 63.9586 71.133 64.3085 71.4341C68.6903 75.6483 74.0029 78.7729 79.8168 80.5553C80.5447 80.8334 81.3457 80.8552 82.0877 80.617C82.8296 80.3788 83.4682 79.8949 83.8979 79.2452C84.4969 77.8357 84.8804 76.3441 85.0356 74.8205Z" fill="#85C225"/>
<path d="M85.3321 29.7962C85.9257 26.6816 85.0229 23.4558 84.5159 20.3536C84.4234 19.8622 84.2244 19.3969 83.9328 18.9906C83.6412 18.5843 83.264 18.2468 82.8279 18.0017C82.3917 17.7567 81.9072 17.6101 81.4083 17.5723C80.9093 17.5345 80.4082 17.6063 79.9401 17.7828C74.0763 19.5531 68.7181 22.6923 64.3082 26.9411C63.9559 27.2408 63.6792 27.6192 63.5006 28.0456C63.3221 28.4721 63.2466 28.9346 63.2803 29.3957C63.314 29.8568 63.456 30.3034 63.6948 30.6994C63.9335 31.0954 64.2623 31.4295 64.6544 31.6748C67.4819 33.6336 70.422 35.4247 73.4598 37.0388C75.3148 38.0522 77.0215 36.4332 78.4066 35.4691C80.6945 33.6152 83.341 32.0209 85.3321 29.7962Z" fill="#85C225"/>
<path d="M71.3822 55.9849C71.6914 52.277 71.3822 48.5692 71.5182 44.9356C71.4193 43.5142 71.8274 41.6109 70.2815 40.7457C67.5484 39.1514 64.5803 37.9278 61.6246 36.593C60.1159 35.8638 57.9887 35.5177 56.6778 36.766C53.4436 40.0925 51.5465 44.4915 51.3477 49.1254C51.5502 53.5972 53.2985 57.8604 56.2945 61.1882C56.835 61.7658 57.5402 62.1634 58.3145 62.327C59.0888 62.4906 59.8947 62.4123 60.6229 62.1028C63.4055 61.0275 66.0644 59.6309 68.7604 58.3949C69.7992 57.8511 71.2462 57.2702 71.3822 55.9849Z" fill="#85C225"/>
<path d="M45.9432 52.9562C46.0298 50.4843 46.0298 47.9012 45.9432 45.3799C42.8043 46.1929 39.719 47.2001 36.7051 48.3956C37.0761 49.0383 37.0514 50.0023 37.8676 50.336C40.4822 51.4314 43.1834 52.3078 45.9432 52.9562Z" fill="#85C225"/>
<path fill-rule="evenodd" clip-rule="evenodd" d="M132.772 72.7811C132.925 72.4152 133.004 72.0223 133.004 71.6255C133.004 71.2287 132.925 70.8359 132.772 70.4699C132.461 69.7031 132.013 68.9994 131.449 68.3936L119.082 77.0451C115.73 79.3811 112.342 81.7664 107.754 85.0046C105.593 86.5058 103.606 88.2427 101.83 90.1832C100.201 91.9818 98.8122 93.9843 97.6992 96.1404V96.2022V96.3011L97.86 97.0055V97.2033C99.8563 97.8491 101.984 97.9767 104.043 97.5741C106.605 97.0412 109.095 96.2116 111.464 95.1022C114.453 93.7724 117.235 92.0201 119.725 89.8989C122.359 87.6458 124.691 85.0619 126.663 82.2114C127.293 81.3091 127.825 80.5799 128.357 79.8507C130.065 77.6501 131.544 75.2813 132.772 72.7811Z" fill="#85C225"/>
<path fill-rule="evenodd" clip-rule="evenodd" d="M119.181 20.4022C123.572 23.4797 127.974 26.5819 132.006 29.4245C132.686 28.8117 133.186 28.0256 133.453 27.1504V27.0392C133.873 25.4201 132.674 23.6033 131.61 21.9718L131.338 21.5516L130.571 20.4269C127.269 15.5944 123.893 10.6753 119.317 7.15291C116.901 5.2533 114.254 3.66693 111.44 2.43162C108.728 1.24045 105.865 0.429421 102.931 0.0215435C101.384 -0.0777561 99.8338 0.167068 98.3925 0.738388V0.800185C98.3059 1.14625 98.1946 1.46759 98.207 1.47995V1.60355C99.3415 3.76549 100.751 5.77194 102.399 7.57313C104.175 9.53005 106.166 11.2797 108.336 12.7888C111.625 15.1124 115.409 17.7573 119.181 20.4022Z" fill="#85C225"/>
<path fill-rule="evenodd" clip-rule="evenodd" d="M134.083 41.4878C133.798 40.635 133.502 39.7699 133.267 38.9294C134.246 38.6415 135.247 38.4307 136.259 38.2991C137.785 38.0971 139.332 38.1304 140.848 38.398C143.529 38.8308 146.162 39.5178 148.713 40.4496C151.116 41.3146 153.345 42.604 155.292 44.2563C156.082 44.8651 156.705 45.6637 157.103 46.5778C157.501 47.492 157.661 48.4918 157.568 49.4843C157.568 52.2528 155.366 54.082 154.315 54.8854C153.066 55.7835 151.728 56.5497 150.321 57.1719C147.344 58.4949 144.204 59.4135 140.984 59.9033C138.396 60.2808 135.759 60.1336 133.229 59.4707C133.477 58.5314 133.811 57.5797 134.145 56.6281C135.003 54.5196 135.516 52.2871 135.666 50.0158C135.762 47.0921 135.222 44.1825 134.083 41.4878Z" fill="#85C225"/>
<path fill-rule="evenodd" clip-rule="evenodd" d="M83.5764 5.1748L67.388 6.18827L44.7935 7.59724L67.388 9.00622L83.5764 10.0197V5.1748Z" fill="#85C225"/>
<path fill-rule="evenodd" clip-rule="evenodd" d="M61.1675 15.373L44.9915 16.3865L22.397 17.7955L44.9915 19.2045L61.1675 20.2179V15.373Z" fill="#85C225"/>
<path fill-rule="evenodd" clip-rule="evenodd" d="M38.7705 25.5801L22.5945 26.5935L0 28.0025L22.5945 29.4115L38.7705 30.425V25.5801Z" fill="#85C225"/>
<path fill-rule="evenodd" clip-rule="evenodd" d="M85.4563 92.9268L69.2679 93.9279L46.6733 95.3368L69.2679 96.7582L85.4563 97.7593V92.9268Z" fill="#85C225"/>
<path fill-rule="evenodd" clip-rule="evenodd" d="M51.5704 66.2061L35.3943 67.2195L12.7998 68.6285L35.3943 70.0375L51.5704 71.0509V66.2061Z" fill="#85C225"/>
<path d="M91.1325 71.3348C103.147 71.3348 112.886 61.6014 112.886 49.5947C112.886 37.5879 103.147 27.8545 91.1325 27.8545C79.1183 27.8545 69.3789 37.5879 69.3789 49.5947C69.3789 61.6014 79.1183 71.3348 91.1325 71.3348Z" fill="white" stroke="#85C225" stroke-width="2.02725" stroke-miterlimit="10"/>
<path d="M91.1042 46.2704C92.8216 46.2704 94.4687 46.9527 95.6831 48.1671C96.8976 49.3815 97.5798 51.0287 97.5798 52.7461V60.5169H84.6285V52.7461C84.6285 51.0287 85.3107 49.3815 86.5252 48.1671C87.7396 46.9527 89.3867 46.2704 91.1042 46.2704ZM82.4112 50.1636C82.2051 50.8588 82.0834 51.5763 82.0486 52.3006L82.0382 52.7461V60.5169H78.1528V54.6888C78.1526 53.5719 78.5647 52.4941 79.3102 51.6624C80.0557 50.8306 81.082 50.3033 82.1923 50.1818L82.4125 50.1636H82.4112ZM99.7971 50.1636C100.95 50.2339 102.032 50.7412 102.823 51.5821C103.615 52.423 104.055 53.5341 104.055 54.6888V60.5169H100.17V52.7461C100.17 51.8486 100.041 50.9821 99.7971 50.1636ZM82.6858 42.3851C83.5445 42.3851 84.3681 42.7262 84.9753 43.3334C85.5825 43.9406 85.9236 44.7642 85.9236 45.6229C85.9236 46.4816 85.5825 47.3052 84.9753 47.9124C84.3681 48.5196 83.5445 48.8607 82.6858 48.8607C81.8271 48.8607 81.0035 48.5196 80.3963 47.9124C79.7891 47.3052 79.448 46.4816 79.448 45.6229C79.448 44.7642 79.7891 43.9406 80.3963 43.3334C81.0035 42.7262 81.8271 42.3851 82.6858 42.3851ZM99.5225 42.3851C100.381 42.3851 101.205 42.7262 101.812 43.3334C102.419 43.9406 102.76 44.7642 102.76 45.6229C102.76 46.4816 102.419 47.3052 101.812 47.9124C101.205 48.5196 100.381 48.8607 99.5225 48.8607C98.6638 48.8607 97.8402 48.5196 97.233 47.9124C96.6258 47.3052 96.2847 46.4816 96.2847 45.6229C96.2847 44.7642 96.6258 43.9406 97.233 43.3334C97.8402 42.7262 98.6638 42.3851 99.5225 42.3851ZM91.1042 34.6143C92.4781 34.6143 93.7958 35.1601 94.7673 36.1316C95.7389 37.1031 96.2847 38.4208 96.2847 39.7948C96.2847 41.1687 95.7389 42.4864 94.7673 43.458C93.7958 44.4295 92.4781 44.9753 91.1042 44.9753C89.7302 44.9753 88.4125 44.4295 87.441 43.458C86.4694 42.4864 85.9236 41.1687 85.9236 39.7948C85.9236 38.4208 86.4694 37.1031 87.441 36.1316C88.4125 35.1601 89.7302 34.6143 91.1042 34.6143Z" fill="#FDB61C"/>
</svg>
