<?xml version="1.0" encoding="UTF-8"?><svg width="157" height="97" viewBox="0 0 157 97" fill="none" xmlns="http://www.w3.org/2000/svg">
<path d="M128.167 54.0535C129.249 50.3954 129.186 46.4939 127.988 42.8723C126.789 39.2508 124.512 36.0821 121.462 33.7914C119.243 32.1489 116.559 34.0979 114.683 35.2624C112.465 36.9539 109.082 38.67 109.67 41.7835C109.915 47.2259 109.351 52.7297 109.915 58.1476C111.96 60.49 114.463 62.3882 117.27 63.7249C117.895 64.1218 118.62 64.3325 119.36 64.3325C120.1 64.3325 120.825 64.1218 121.45 63.7249C124.684 61.3202 127.043 57.9237 128.167 54.0535Z" fill="#85C225"/>
<path d="M111.962 71.9622C113.764 70.908 114.414 68.2849 112.538 67.0591C110.236 65.2291 107.696 63.7199 104.988 62.5728C101.752 62.8669 98.9813 64.6688 95.9904 65.6985C94.213 66.5443 91.8596 66.9243 90.8789 68.7016C89.9964 71.6435 90.1435 74.7324 90.0454 77.7479C91.2712 78.4588 92.497 79.5988 94.1395 79.2065C100.603 78.3606 106.741 75.8658 111.962 71.9622Z" fill="#85C225"/>
<path d="M112.857 30.1386C114.475 28.8147 113.568 26.5471 111.975 25.5787C106.757 21.6962 100.636 19.2072 94.1888 18.3466C92.534 17.9544 91.296 19.0698 90.0334 19.8298C90.1683 22.8697 90.0335 25.9587 90.9038 28.9251C91.9334 30.6044 94.1766 30.9476 95.8927 31.8301C98.9081 32.8843 101.715 34.6494 104.963 34.9804C107.834 33.7944 110.499 32.1602 112.857 30.1386Z" fill="#85C225"/>
<path d="M84.2846 74.2052C84.4439 72.1459 85.0936 70.0008 84.5175 67.966C82.6175 65.7718 80.0066 64.2151 77.7389 62.3642C76.3661 61.3958 74.65 59.7655 72.8358 60.7952C69.8074 62.3926 66.8841 64.1818 64.0838 66.1518C63.6972 66.3968 63.3735 66.7289 63.1384 67.1215C62.9033 67.5141 62.7635 67.9564 62.7301 68.4128C62.6968 68.8692 62.7708 69.327 62.9463 69.7497C63.1217 70.1723 63.3938 70.548 63.7406 70.8465C68.0837 75.0261 73.3493 78.125 79.1118 79.8928C79.8333 80.1686 80.6273 80.1902 81.3627 79.954C82.0981 79.7177 82.7309 79.2378 83.1569 78.5935C83.7506 77.1955 84.1308 75.7162 84.2846 74.2052Z" fill="#85C225"/>
<path d="M84.5788 29.5503C85.1671 26.4613 84.2723 23.2621 83.7697 20.1854C83.6781 19.698 83.4809 19.2366 83.1918 18.8336C82.9028 18.4306 82.5289 18.0959 82.0967 17.8529C81.6644 17.6098 81.1841 17.4645 80.6896 17.427C80.1951 17.3895 79.6984 17.4607 79.2344 17.6358C73.4224 19.3915 68.1115 22.5049 63.7406 26.7188C63.3914 27.0159 63.1172 27.3912 62.9402 27.8142C62.7631 28.2371 62.6883 28.6959 62.7218 29.1532C62.7552 29.6104 62.8959 30.0534 63.1326 30.4461C63.3692 30.8388 63.6951 31.1703 64.0838 31.4135C66.8862 33.3562 69.8004 35.1326 72.8113 36.7334C74.65 37.7385 76.3415 36.1327 77.7144 35.1766C79.9821 33.338 82.6053 31.7567 84.5788 29.5503Z" fill="#85C225"/>
<path d="M70.7517 55.5246C71.0582 51.8473 70.7517 48.1699 70.8866 44.5662C70.7885 43.1565 71.193 41.2688 69.6608 40.4108C66.9518 38.8295 64.01 37.616 61.0804 36.2922C59.5849 35.569 57.4766 35.2257 56.1773 36.4638C52.9716 39.7629 51.0913 44.1257 50.8942 48.7215C51.0949 53.1566 52.8278 57.3848 55.7973 60.6851C56.333 61.258 57.032 61.6523 57.7995 61.8146C58.5669 61.9769 59.3657 61.8992 60.0875 61.5922C62.8455 60.5258 65.4809 59.1406 68.1531 57.9149C69.1827 57.3755 70.6169 56.7994 70.7517 55.5246Z" fill="#85C225"/>
<path d="M45.5377 52.5213C45.6235 50.0698 45.6235 47.5079 45.5377 45.0073C42.4265 45.8137 39.3684 46.8125 36.3812 47.9982C36.7489 48.6356 36.7244 49.5917 37.5334 49.9227C40.1249 51.0091 42.8022 51.8783 45.5377 52.5213Z" fill="#85C225"/>
<path fill-rule="evenodd" clip-rule="evenodd" d="M131.599 72.1828C131.752 71.8198 131.83 71.4302 131.83 71.0367C131.83 70.6432 131.752 70.2536 131.599 69.8906C131.291 69.1301 130.847 68.4322 130.288 67.8313L118.03 76.4117C114.708 78.7284 111.35 81.0942 106.802 84.3057C104.66 85.7946 102.691 87.5172 100.931 89.4417C99.3158 91.2256 97.9396 93.2116 96.8365 95.35V95.4113V95.5093L96.9958 96.208V96.4041C98.9745 97.0447 101.084 97.1712 103.125 96.7719C105.663 96.2434 108.131 95.4206 110.479 94.3203C113.442 93.0015 116.2 91.2635 118.668 89.1598C121.279 86.9252 123.59 84.3626 125.544 81.5355C126.169 80.6407 126.696 79.9175 127.223 79.1942C128.916 77.0117 130.383 74.6624 131.599 72.1828Z" fill="#85C225"/>
<path fill-rule="evenodd" clip-rule="evenodd" d="M118.128 20.2344C122.48 23.2866 126.843 26.3633 130.839 29.1826C131.513 28.5748 132.009 27.7951 132.274 26.9272V26.8168C132.69 25.2111 131.501 23.4092 130.447 21.7911L130.177 21.3744L129.418 20.2589C126.145 15.4661 122.798 10.5876 118.263 7.09409C115.868 5.2101 113.245 3.63678 110.455 2.41163C107.767 1.23025 104.929 0.42589 102.021 0.0213663C100.488 -0.0771167 98.9513 0.165694 97.5228 0.732316V0.793605C97.437 1.13682 97.3267 1.45552 97.339 1.46778V1.59036C98.4634 3.73452 99.8601 5.72448 101.494 7.51086C103.254 9.45168 105.228 11.187 107.378 12.6836C110.639 14.9881 114.389 17.6113 118.128 20.2344Z" fill="#85C225"/>
<path fill-rule="evenodd" clip-rule="evenodd" d="M132.898 41.1461C132.617 40.3003 132.322 39.4422 132.089 38.6087C133.06 38.3231 134.052 38.1141 135.056 37.9836C136.568 37.7832 138.102 37.8163 139.603 38.0816C142.261 38.5109 144.871 39.1922 147.399 40.1164C149.782 40.9743 151.99 42.2531 153.921 43.8918C154.703 44.4956 155.321 45.2877 155.715 46.1943C156.109 47.1008 156.268 48.0925 156.176 49.0768C156.176 51.8226 153.994 53.6367 152.952 54.4335C151.714 55.3242 150.387 56.0841 148.993 56.7012C146.043 58.0133 142.93 58.9244 139.738 59.4101C137.174 59.7845 134.56 59.6386 132.053 58.9811C132.298 58.0495 132.629 57.1057 132.96 56.1618C133.81 54.0707 134.319 51.8565 134.467 49.6039C134.563 46.7043 134.027 43.8186 132.898 41.1461Z" fill="#85C225"/>
<path fill-rule="evenodd" clip-rule="evenodd" d="M82.838 5.13281L66.7926 6.13795L44.3977 7.53533L66.7926 8.93272L82.838 9.93786V5.13281Z" fill="#85C225"/>
<path fill-rule="evenodd" clip-rule="evenodd" d="M60.6269 15.2454L44.5938 16.2505L22.1989 17.6479L44.5938 19.0453L60.6269 20.0504V15.2454Z" fill="#85C225"/>
<path fill-rule="evenodd" clip-rule="evenodd" d="M38.4281 25.3704L22.3949 26.3755L0 27.7729L22.3949 29.1703L38.4281 30.1754V25.3704Z" fill="#85C225"/>
<path fill-rule="evenodd" clip-rule="evenodd" d="M84.701 92.1628L68.6556 93.1557L46.2607 94.5531L68.6556 95.9627L84.701 96.9556V92.1628Z" fill="#85C225"/>
<path fill-rule="evenodd" clip-rule="evenodd" d="M51.115 65.6616L35.0819 66.6668L12.687 68.0641L35.0819 69.4615L51.115 70.4667V65.6616Z" fill="#85C225"/>
<path d="M90.3276 70.7485C102.236 70.7485 111.889 61.0952 111.889 49.1871C111.889 37.2791 102.236 27.6257 90.3276 27.6257C78.4195 27.6257 68.7662 37.2791 68.7662 49.1871C68.7662 61.0952 78.4195 70.7485 90.3276 70.7485Z" fill="white" stroke="#85C225" stroke-width="0.738298" stroke-miterlimit="10"/>
<path fill-rule="evenodd" clip-rule="evenodd" d="M90.1214 62.9434C89.4549 63.9432 89.4543 63.9428 89.4543 63.9428L89.4508 63.9405L89.4428 63.9351L89.4153 63.9165C89.3919 63.9006 89.3585 63.8777 89.3158 63.8482C89.2305 63.7891 89.1079 63.703 88.9532 63.5913C88.6441 63.368 88.2065 63.0422 87.6832 62.6255C86.6384 61.7935 85.2422 60.5917 83.842 59.1136C81.0906 56.2093 78.1055 52.0112 78.1055 47.3226C78.1055 44.1358 79.3714 41.0795 81.6249 38.826C83.8783 36.5726 86.9346 35.3066 90.1214 35.3066C93.3083 35.3066 96.3646 36.5726 98.618 38.826C100.871 41.0795 102.137 44.1358 102.137 47.3226C102.137 52.0112 99.1523 56.2093 96.4009 59.1136C95.0007 60.5917 93.6045 61.7935 92.5597 62.6255C92.0364 63.0422 91.5988 63.368 91.2896 63.5913C91.135 63.703 91.0124 63.7891 90.927 63.8482C90.8844 63.8777 90.851 63.9006 90.8276 63.9165L90.8001 63.9351L90.7921 63.9405L90.7895 63.9422C90.7895 63.9422 90.788 63.9432 90.1214 62.9434ZM90.1214 62.9434L90.7895 63.9422C90.3859 64.2112 89.8579 64.2118 89.4543 63.9428L90.1214 62.9434Z" fill="#FDB61C"/>
<path fill-rule="evenodd" clip-rule="evenodd" d="M81.6953 47.3259C81.6953 42.6737 85.4667 38.9023 90.1189 38.9023C94.7711 38.9023 98.5425 42.6737 98.5425 47.3259C98.5425 51.9782 94.7711 55.7495 90.1189 55.7495C85.4667 55.7495 81.6953 51.9782 81.6953 47.3259Z" fill="white"/>
<path fill-rule="evenodd" clip-rule="evenodd" d="M86.1875 47.3205C86.1875 45.1458 87.9504 43.3828 90.1251 43.3828C92.2998 43.3828 94.0628 45.1458 94.0628 47.3205C94.0628 49.4952 92.2998 51.2581 90.1251 51.2581C87.9504 51.2581 86.1875 49.4952 86.1875 47.3205Z" fill="#FDB61C"/>
</svg>
