<svg width="50" height="50" viewBox="0 0 50 50" fill="none" xmlns="http://www.w3.org/2000/svg">
<path fill-rule="evenodd" clip-rule="evenodd" d="M8.12779 35.8966C8.3533 36.0096 8.60284 36.0664 8.85507 36.0621C9.00996 36.0618 9.16411 36.0408 9.3134 35.9996L15.6566 34.0288C17.0929 36.6446 19.3706 38.717 22.139 39.8962C25.3102 41.247 28.8804 41.3213 32.1051 40.1037L40.6884 42.7079C40.8405 42.7282 40.9946 42.7282 41.1467 42.7079H41.2092C41.4615 42.7122 41.711 42.6555 41.9365 42.5424C42.162 42.4293 42.3568 42.2633 42.5042 42.0586C42.6516 41.8539 42.7472 41.6165 42.7829 41.3668C42.8187 41.1171 42.7934 40.8624 42.7092 40.6246L40.1051 32.0412C40.6521 30.5387 40.934 28.9527 40.9384 27.3537C40.9442 25.5498 40.5827 23.7635 39.8759 22.1037C39.2023 20.5017 38.2261 19.0446 37.0009 17.8121C36.4873 17.32 35.9369 16.8681 35.3547 16.4603C35.2487 16.1432 35.1307 15.8296 35.0009 15.5204C34.3197 13.9225 33.3444 12.4667 32.1259 11.2287C30.5556 9.6766 28.6286 8.53331 26.5137 7.89907C24.3988 7.26482 22.1607 7.15897 19.9954 7.59079C17.8301 8.02261 15.8038 8.97893 14.094 10.3759C12.3842 11.7729 11.0432 13.568 10.1884 15.6037C9.48329 17.2567 9.12179 19.0358 9.1259 20.8329C9.14493 22.3898 9.42667 23.9323 9.95924 25.3954L7.35507 33.9787C7.27094 34.2165 7.24565 34.4712 7.28136 34.7209C7.31706 34.9707 7.4127 35.208 7.5601 35.4128C7.7075 35.6175 7.90228 35.7835 8.12779 35.8966ZM35.9888 22.0059C35.8601 23.3562 35.5277 24.6818 35.0009 25.9371C34.3197 27.535 33.3444 28.9907 32.1259 30.2287C30.2991 32.0523 27.9877 33.314 25.4658 33.8641C23.3893 34.3172 21.2417 34.2722 19.1967 33.7414C19.4569 34.0941 19.7393 34.4308 20.0426 34.7496C21.5033 36.1943 23.3587 37.1748 25.3753 37.5677C27.3918 37.9606 29.4796 37.7485 31.3759 36.9579C31.7192 36.8338 32.0951 36.8338 32.4384 36.9579L38.6884 38.8746L36.7717 32.6246C36.6476 32.2813 36.6476 31.9054 36.7717 31.5621C37.3118 30.2906 37.5883 28.9227 37.5842 27.5412C37.5892 26.1832 37.3247 24.8376 36.8062 23.5824C36.5792 23.033 36.3055 22.5056 35.9888 22.0059ZM18.5634 11.2287C19.8349 10.6886 21.2028 10.4122 22.5842 10.4162C24.257 10.4585 25.895 10.9032 27.3596 11.7126C28.8241 12.522 30.0721 13.6723 30.9979 15.0661C31.9238 16.46 32.5002 18.0564 32.6784 19.7202C32.8566 21.384 32.6314 23.0662 32.0217 24.6246C30.9383 27.1404 28.9075 29.1282 26.3691 30.1576C23.8307 31.187 20.989 31.1752 18.4592 30.1246C18.1159 30.0004 17.74 30.0004 17.3967 30.1246L11.1467 32.0412L13.0634 25.7912C13.1875 25.4479 13.1875 25.072 13.0634 24.7287C12.5277 23.4523 12.2517 22.0818 12.2517 20.6975C12.2517 19.3131 12.5277 17.9427 13.0634 16.6662C14.131 14.2151 16.1002 12.2682 18.5634 11.2287Z" fill="white"/>
</svg>
