<svg width="50" height="50" viewBox="0 0 50 50" fill="none" xmlns="http://www.w3.org/2000/svg">
<path fill-rule="evenodd" clip-rule="evenodd" d="M8.12682 35.8966C8.35233 36.0096 8.60186 36.0664 8.85409 36.0621C9.00898 36.0618 9.16314 36.0408 9.31242 35.9996L15.6556 34.0288C17.0919 36.6446 19.3696 38.717 22.138 39.8962C25.3092 41.247 28.8794 41.3213 32.1041 40.1037L40.6874 42.7079C40.8395 42.7282 40.9937 42.7282 41.1458 42.7079H41.2083C41.4605 42.7122 41.71 42.6555 41.9355 42.5424C42.161 42.4293 42.3558 42.2633 42.5032 42.0586C42.6506 41.8539 42.7463 41.6165 42.782 41.3668C42.8177 41.1171 42.7924 40.8624 42.7083 40.6246L40.1041 32.0412C40.6511 30.5387 40.9331 28.9527 40.9374 27.3537C40.9432 25.5498 40.5817 23.7635 39.8749 22.1037C39.2013 20.5017 38.2252 19.0446 36.9999 17.8121C36.4863 17.32 35.936 16.8681 35.3538 16.4603C35.2477 16.1432 35.1297 15.8296 34.9999 15.5204C34.3187 13.9225 33.3435 12.4667 32.1249 11.2287C30.5546 9.6766 28.6276 8.53331 26.5127 7.89907C24.3979 7.26482 22.1597 7.15897 19.9944 7.59079C17.8291 8.02261 15.8028 8.97893 14.093 10.3759C12.3832 11.7729 11.0422 13.568 10.1874 15.6037C9.48231 17.2567 9.12082 19.0358 9.12493 20.8329C9.14396 22.3898 9.42569 23.9323 9.95826 25.3954L7.35409 33.9787C7.26996 34.2165 7.24467 34.4712 7.28038 34.7209C7.31608 34.9707 7.41172 35.208 7.55913 35.4128C7.70653 35.6175 7.90131 35.7835 8.12682 35.8966ZM35.9878 22.0059C35.8591 23.3562 35.5268 24.6818 34.9999 25.9371C34.3187 27.535 33.3435 28.9907 32.1249 30.2287C30.2981 32.0523 27.9868 33.314 25.4648 33.8641C23.3883 34.3172 21.2407 34.2722 19.1958 33.7414C19.456 34.0941 19.7384 34.4308 20.0416 34.7496C21.5023 36.1943 23.3577 37.1748 25.3743 37.5677C27.3909 37.9606 29.4786 37.7485 31.3749 36.9579C31.7182 36.8338 32.0941 36.8338 32.4374 36.9579L38.6874 38.8746L36.7708 32.6246C36.6466 32.2813 36.6466 31.9054 36.7708 31.5621C37.3109 30.2906 37.5873 28.9227 37.5833 27.5412C37.5882 26.1832 37.3237 24.8376 36.8052 23.5824C36.5782 23.033 36.3046 22.5056 35.9878 22.0059ZM18.5624 11.2287C19.8339 10.6886 21.2018 10.4122 22.5833 10.4162C24.256 10.4585 25.894 10.9032 27.3586 11.7126C28.8231 12.522 30.0711 13.6723 30.997 15.0661C31.9228 16.46 32.4992 18.0564 32.6774 19.7202C32.8556 21.384 32.6304 23.0662 32.0208 24.6246C30.9373 27.1404 28.9066 29.1282 26.3681 30.1576C23.8297 31.187 20.988 31.1752 18.4583 30.1246C18.115 30.0004 17.7391 30.0004 17.3958 30.1246L11.1458 32.0412L13.0624 25.7912C13.1865 25.4479 13.1865 25.072 13.0624 24.7287C12.5267 23.4523 12.2508 22.0818 12.2508 20.6975C12.2508 19.3131 12.5267 17.9427 13.0624 16.6662C14.13 14.2151 16.0992 12.2682 18.5624 11.2287Z" fill="#4361EE"/>
</svg>
