<svg width="70" height="70" viewBox="0 0 70 70" fill="none" xmlns="http://www.w3.org/2000/svg">
<path d="M24.7917 57.6044C24.5009 57.6028 24.2134 57.5433 23.9458 57.4294C23.5468 57.2663 23.2057 56.9874 22.9666 56.6287C22.7275 56.27 22.6013 55.8479 22.6042 55.4169V14.5835C22.62 14.1685 22.7536 13.7665 22.9895 13.4245C23.2254 13.0826 23.5538 12.815 23.9362 12.6528C24.3186 12.4907 24.7393 12.4407 25.149 12.5089C25.5588 12.5771 25.9407 12.7605 26.25 13.0377L46.6667 33.4544C47.0763 33.8645 47.3064 34.4205 47.3064 35.0002C47.3064 35.5799 47.0763 36.1359 46.6667 36.546L26.25 56.9627C25.8587 57.3476 25.3399 57.5759 24.7917 57.6044ZM26.9792 19.8627V50.1377L42.1167 35.0002L26.9792 19.8627Z" fill="white"/>
</svg>
