<svg width="36" height="36" viewBox="0 0 36 36" fill="none" xmlns="http://www.w3.org/2000/svg">
<path fill-rule="evenodd" clip-rule="evenodd" d="M2.375 35.1875C1.9606 35.1875 1.56317 35.0229 1.27015 34.7299C0.97712 34.4368 0.8125 34.0394 0.8125 33.625V2.375C0.8125 1.9606 0.97712 1.56317 1.27015 1.27015C1.56317 0.97712 1.9606 0.8125 2.375 0.8125C2.7894 0.8125 3.18683 0.97712 3.47985 1.27015C3.77288 1.56317 3.9375 1.9606 3.9375 2.375V32.0625H33.625C34.0394 32.0625 34.4368 32.2271 34.7299 32.5201C35.0229 32.8132 35.1875 33.2106 35.1875 33.625C35.1875 34.0394 35.0229 34.4368 34.7299 34.7299C34.4368 35.0229 34.0394 35.1875 33.625 35.1875H2.375ZM9.66667 27.8958C9.25395 27.8904 8.85964 27.7241 8.56778 27.4322C8.27592 27.1404 8.10956 26.7461 8.10417 26.3333V18C8.10417 17.5856 8.26879 17.1882 8.56181 16.8951C8.85484 16.6021 9.25227 16.4375 9.66667 16.4375C10.0811 16.4375 10.4785 16.6021 10.7715 16.8951C11.0645 17.1882 11.2292 17.5856 11.2292 18V26.3333C11.2238 26.7461 11.0574 27.1404 10.7656 27.4322C10.4737 27.7241 10.0794 27.8904 9.66667 27.8958ZM15.8594 27.4322C16.1513 27.7241 16.5456 27.8904 16.9583 27.8958C17.3711 27.8904 17.7654 27.7241 18.0572 27.4322C18.3491 27.1404 18.5154 26.7461 18.5208 26.3333V9.66667C18.5208 9.25227 18.3562 8.85484 18.0632 8.56181C17.7702 8.26879 17.3727 8.10417 16.9583 8.10417C16.5439 8.10417 16.1465 8.26879 15.8535 8.56181C15.5605 8.85484 15.3958 9.25227 15.3958 9.66667V26.3333C15.4012 26.7461 15.5676 27.1404 15.8594 27.4322ZM24.25 27.8958C23.8373 27.8904 23.443 27.7241 23.1511 27.4322C22.8593 27.1404 22.6929 26.7461 22.6875 26.3333V18C22.6875 17.5856 22.8521 17.1882 23.1451 16.8951C23.4382 16.6021 23.8356 16.4375 24.25 16.4375C24.6644 16.4375 25.0618 16.6021 25.3549 16.8951C25.6479 17.1882 25.8125 17.5856 25.8125 18V26.3333C25.8071 26.7461 25.6408 27.1404 25.3489 27.4322C25.057 27.7241 24.6627 27.8904 24.25 27.8958ZM30.4428 27.4322C30.7346 27.7241 31.1289 27.8904 31.5417 27.8958C31.9544 27.8904 32.3487 27.7241 32.6406 27.4322C32.9324 27.1404 33.0988 26.7461 33.1042 26.3333V9.66667C33.1042 9.25227 32.9396 8.85484 32.6465 8.56181C32.3535 8.26879 31.9561 8.10417 31.5417 8.10417C31.1273 8.10417 30.7298 8.26879 30.4368 8.56181C30.1438 8.85484 29.9792 9.25227 29.9792 9.66667V26.3333C29.9846 26.7461 30.1509 27.1404 30.4428 27.4322Z" fill="#4361EE"/>
</svg>
