<svg width="50" height="50" viewBox="0 0 50 50" fill="none" xmlns="http://www.w3.org/2000/svg">
<path fill-rule="evenodd" clip-rule="evenodd" d="M15.4762 41.1355C18.3597 42.8429 21.6481 43.7463 24.9992 43.7517H26.9368C29.4775 43.4923 31.9343 42.697 34.1451 41.4184C37.372 39.6409 40.0039 36.9522 41.7119 33.688C43.42 30.4238 44.1286 26.7287 43.7492 23.0642C43.7287 22.8494 43.6661 22.6408 43.565 22.4503C43.4638 22.2597 43.3261 22.0909 43.1598 21.9536C42.9934 21.8162 42.8016 21.713 42.5953 21.6497C42.3891 21.5865 42.1723 21.5645 41.9576 21.585C41.7428 21.6056 41.5342 21.6682 41.3436 21.7693C41.1531 21.8705 40.9843 22.0082 40.8469 22.1745C40.7096 22.3409 40.6063 22.5327 40.5431 22.739C40.4799 22.9452 40.4579 23.1619 40.4784 23.3767C40.7011 25.4212 40.5137 27.4895 39.927 29.4606C39.3403 31.4317 38.3662 33.266 37.0618 34.8559C35.7948 36.4166 34.2386 37.7182 32.4784 38.6892C30.6514 39.7 28.6388 40.3307 26.5617 40.5434C24.5173 40.7661 22.4489 40.5786 20.4778 39.9919C18.5067 39.4053 16.6725 38.4312 15.0826 37.1267C13.5219 35.8597 12.2203 34.3035 11.2492 32.5434C10.2385 30.7164 9.60777 28.7038 9.39508 26.6267C9.17236 24.5822 9.35983 22.5139 9.94652 20.5428C10.5332 18.5717 11.5073 16.7375 12.8117 15.1475C14.0787 13.5868 15.6349 12.2853 17.3951 11.3142C19.2221 10.3034 21.2347 9.67273 23.3117 9.46004C25.4131 9.23655 27.538 9.43487 29.5617 10.0434C29.7633 10.1255 29.9798 10.1647 30.1974 10.1582C30.415 10.1518 30.6288 10.1 30.8252 10.0062C31.0216 9.91231 31.1962 9.77844 31.3379 9.61316C31.4795 9.44787 31.5851 9.25482 31.6478 9.04636C31.7104 8.83791 31.7289 8.61866 31.7019 8.40266C31.6749 8.18667 31.6031 7.9787 31.491 7.79208C31.379 7.60547 31.2292 7.44432 31.0512 7.31898C30.8732 7.19363 30.671 7.10686 30.4576 7.06421C28.0658 6.32926 25.5496 6.08826 23.0617 6.35587C20.5646 6.59749 18.1451 7.35667 15.9576 8.58504C12.7345 10.3654 10.1069 13.0554 8.40268 16.3193C6.69844 19.5833 5.99296 23.2769 6.37425 26.9392C6.61587 29.4364 7.37505 31.8558 8.60342 34.0434C10.2194 36.9791 12.5926 39.4281 15.4762 41.1355ZM20.8303 31.252C21.0961 31.5551 21.47 31.7421 21.872 31.7728C22.2739 31.7421 22.6478 31.5551 22.9136 31.252L41.6636 12.502C41.8029 12.2104 41.8483 11.8829 41.7937 11.5644C41.739 11.2459 41.587 10.9522 41.3585 10.7238C41.13 10.4953 40.8363 10.3433 40.5179 10.2886C40.1994 10.234 39.8719 10.2794 39.5803 10.4187L21.8095 28.0645L16.6636 22.9187C16.372 22.7794 16.0445 22.734 15.726 22.7886C15.4075 22.8433 15.1139 22.9953 14.8854 23.2238C14.6569 23.4522 14.5049 23.7459 14.4502 24.0644C14.3956 24.3829 14.441 24.7104 14.5803 25.002L20.8303 31.252Z" fill="#4361EE"/>
</svg>
