<?xml version="1.0" encoding="UTF-8"?><svg width="157" height="97" viewBox="0 0 157 97" fill="none" xmlns="http://www.w3.org/2000/svg">
<path d="M128.166 54.0551C129.248 50.397 129.185 46.4956 127.987 42.8741C126.788 39.2526 124.511 36.084 121.461 33.7934C119.242 32.1509 116.558 34.0998 114.683 35.2643C112.464 36.9558 109.081 38.6719 109.669 41.7853C109.914 47.2276 109.35 52.7313 109.914 58.1491C111.959 60.4914 114.462 62.3896 117.269 63.7263C117.894 64.1231 118.619 64.3339 119.359 64.3339C120.099 64.3339 120.824 64.1231 121.449 63.7263C124.683 61.3216 127.042 57.9252 128.166 54.0551Z" fill="#85C225"/>
<path d="M111.956 71.9596C113.757 70.9054 114.407 68.2823 112.532 67.0566C110.229 65.2266 107.689 63.7174 104.981 62.5703C101.745 62.8645 98.9748 64.6663 95.984 65.696C94.2066 66.5418 91.8532 66.9217 90.8726 68.6991C89.99 71.6409 90.1371 74.7298 90.0391 77.7451C91.2648 78.4561 92.4906 79.596 94.1331 79.2038C100.597 78.3578 106.734 75.8631 111.956 71.9596Z" fill="#85C225"/>
<path d="M112.851 30.1405C114.469 28.8167 113.562 26.5491 111.968 25.5807C106.75 21.6983 100.629 19.2094 94.1826 18.3488C92.5279 17.9566 91.2899 19.072 90.0273 19.832C90.1622 22.8718 90.0274 25.9607 90.8976 28.9271C91.9273 30.6063 94.1704 30.9495 95.8865 31.8321C98.9018 32.8862 101.709 34.6513 104.957 34.9823C107.828 33.7963 110.492 32.1621 112.851 30.1405Z" fill="#85C225"/>
<path d="M84.2845 74.2054C84.4438 72.1461 85.0935 70.0011 84.5174 67.9663C82.6174 65.7722 80.0066 64.2155 77.7389 62.3646C76.3661 61.3963 74.6501 59.766 72.8359 60.7957C69.8076 62.3931 66.8844 64.1822 64.0841 66.1522C63.6975 66.3972 63.3738 66.7292 63.1387 67.1219C62.9036 67.5145 62.7638 67.9567 62.7305 68.4131C62.6971 68.8695 62.7711 69.3274 62.9466 69.75C63.122 70.1726 63.3941 70.5483 63.7409 70.8468C68.0839 75.0263 73.3494 78.1252 79.1118 79.8929C79.8333 80.1687 80.6272 80.1903 81.3626 79.9541C82.098 79.7179 82.7309 79.238 83.1568 78.5936C83.7505 77.1957 84.1307 75.7164 84.2845 74.2054Z" fill="#85C225"/>
<path d="M84.5753 29.5508C85.1636 26.4619 84.2688 23.2627 83.7663 20.1861C83.6747 19.6987 83.4774 19.2373 83.1884 18.8343C82.8993 18.4314 82.5255 18.0966 82.0932 17.8536C81.661 17.6106 81.1807 17.4652 80.6862 17.4277C80.1917 17.3902 79.695 17.4615 79.231 17.6365C73.4191 19.3922 68.1084 22.5055 63.7375 26.7193C63.3883 27.0165 63.1141 27.3918 62.9371 27.8147C62.7601 28.2377 62.6853 28.6964 62.7187 29.1537C62.7521 29.6109 62.8929 30.0539 63.1295 30.4466C63.3662 30.8393 63.692 31.1707 64.0807 31.414C66.8831 33.3567 69.7972 35.133 72.8081 36.7337C74.6467 37.7388 76.3382 36.1331 77.7111 35.177C79.9787 33.3384 82.6018 31.7572 84.5753 29.5508Z" fill="#85C225"/>
<path d="M70.7478 55.5257C71.0543 51.8484 70.7478 48.1712 70.8827 44.5675C70.7846 43.1578 71.1891 41.2702 69.6569 40.4122C66.948 38.8309 64.0062 37.6174 61.0766 36.2936C59.5812 35.5704 57.4729 35.2272 56.1736 36.4652C52.9681 39.7643 51.0877 44.127 50.8906 48.7228C51.0914 53.1577 52.8242 57.3858 55.7936 60.6861C56.3294 61.259 57.0284 61.6533 57.7958 61.8156C58.5632 61.9778 59.362 61.9002 60.0838 61.5932C62.8417 60.5268 65.4771 59.1417 68.1492 57.9159C69.1789 57.3766 70.613 56.8005 70.7478 55.5257Z" fill="#85C225"/>
<path d="M45.5431 52.5236C45.6289 50.0721 45.6289 47.5103 45.5431 45.0098C42.432 45.8161 39.3739 46.815 36.3867 48.0006C36.7544 48.638 36.7299 49.5941 37.5389 49.925C40.1304 51.0114 42.8077 51.8806 45.5431 52.5236Z" fill="#85C225"/>
<path fill-rule="evenodd" clip-rule="evenodd" d="M131.598 72.1835C131.75 71.8205 131.829 71.4309 131.829 71.0374C131.829 70.6439 131.75 70.2543 131.598 69.8913C131.29 69.1308 130.846 68.4329 130.287 67.832L118.029 76.4123C114.707 78.729 111.349 81.0947 106.801 84.3061C104.66 85.795 102.69 87.5176 100.93 89.4421C99.3152 91.2259 97.9391 93.2119 96.8359 95.3502V95.4115V95.5095L96.9953 96.2082V96.4043C98.9739 97.0449 101.083 97.1714 103.124 96.7721C105.663 96.2435 108.131 95.4208 110.479 94.3206C113.441 93.0017 116.199 91.2638 118.667 89.1601C121.278 86.9256 123.589 84.363 125.543 81.536C126.168 80.6412 126.695 79.918 127.222 79.1948C128.915 77.0123 130.381 74.663 131.598 72.1835Z" fill="#85C225"/>
<path fill-rule="evenodd" clip-rule="evenodd" d="M118.126 20.234C122.477 23.2862 126.841 26.3628 130.837 29.182C131.51 28.5743 132.006 27.7946 132.271 26.9266V26.8163C132.688 25.2106 131.499 23.4087 130.444 21.7907L130.175 21.374L129.415 20.2585C126.142 15.4659 122.796 10.5874 118.26 7.09396C115.866 5.21001 113.242 3.63671 110.452 2.41158C107.765 1.23023 104.927 0.425882 102.019 0.0213659C100.486 -0.0771153 98.9492 0.165691 97.5207 0.732303V0.79359C97.4349 1.1368 97.3246 1.4555 97.3369 1.46775V1.59033C98.4613 3.73445 99.858 5.72437 101.492 7.51072C103.252 9.45151 105.226 11.1868 107.376 12.6834C110.636 14.9878 114.387 17.6109 118.126 20.234Z" fill="#85C225"/>
<path fill-rule="evenodd" clip-rule="evenodd" d="M132.9 41.147C132.619 40.3012 132.324 39.4432 132.091 38.6097C133.062 38.3241 134.054 38.1151 135.058 37.9845C136.57 37.7842 138.103 37.8173 139.605 38.0826C142.263 38.5118 144.873 39.1932 147.401 40.1173C149.783 40.9752 151.992 42.2539 153.922 43.8927C154.705 44.4964 155.322 45.2885 155.717 46.1951C156.111 47.1016 156.27 48.0933 156.178 49.0776C156.178 51.8233 153.996 53.6374 152.954 54.4341C151.716 55.3248 150.389 56.0848 148.995 56.7018C146.045 58.0139 142.932 58.9249 139.74 59.4107C137.176 59.785 134.562 59.6391 132.055 58.9817C132.3 58.0501 132.631 57.1063 132.962 56.1625C133.812 54.0713 134.321 51.8572 134.469 49.6047C134.565 46.7051 134.029 43.8194 132.9 41.147Z" fill="#85C225"/>
<path fill-rule="evenodd" clip-rule="evenodd" d="M82.8341 5.13477L66.789 6.13988L44.3945 7.53724L66.789 8.9346L82.8341 9.93972V5.13477Z" fill="#85C225"/>
<path fill-rule="evenodd" clip-rule="evenodd" d="M60.6227 15.2461L44.5898 16.2512L22.1953 17.6486L44.5898 19.0459L60.6227 20.051V15.2461Z" fill="#85C225"/>
<path fill-rule="evenodd" clip-rule="evenodd" d="M38.4274 25.3711L22.3945 26.3762L0 27.7736L22.3945 29.1709L38.4274 30.176V25.3711Z" fill="#85C225"/>
<path fill-rule="evenodd" clip-rule="evenodd" d="M84.7013 92.1621L68.6562 93.155L46.2617 94.5523L68.6562 95.9619L84.7013 96.9548V92.1621Z" fill="#85C225"/>
<path fill-rule="evenodd" clip-rule="evenodd" d="M51.1188 65.6602L35.0859 66.6653L12.6914 68.0626L35.0859 69.46L51.1188 70.4651V65.6602Z" fill="#85C225"/>
<path d="M90.3266 70.745C102.234 70.745 111.888 61.0919 111.888 49.184C111.888 37.2762 102.234 27.623 90.3266 27.623C78.4188 27.623 68.7656 37.2762 68.7656 49.184C68.7656 61.0919 78.4188 70.745 90.3266 70.745Z" fill="white" stroke="#85C225" stroke-width="2.00728" stroke-miterlimit="10"/>
<path d="M90.7964 32.6113L94.253 43.263C94.2783 43.3374 94.3261 43.4022 94.3898 43.4483C94.4535 43.4944 94.5299 43.5196 94.6085 43.5205H105.8C105.88 43.5165 105.96 43.5391 106.026 43.5848C106.092 43.6305 106.142 43.6967 106.167 43.7734C106.192 43.85 106.191 43.9327 106.165 44.0088C106.138 44.0849 106.087 44.1502 106.02 44.1946L96.9619 50.7769C96.8961 50.8213 96.8471 50.8865 96.8227 50.9621C96.7982 51.0376 96.7998 51.1191 96.8271 51.1937L100.284 61.8332C100.313 61.9089 100.316 61.9922 100.293 62.07C100.27 62.1478 100.222 62.2158 100.156 62.2634C100.09 62.311 100.011 62.3355 99.9296 62.333C99.8484 62.3306 99.7704 62.3014 99.7076 62.25L90.7106 55.6799C90.6469 55.6322 90.5695 55.6064 90.4899 55.6064C90.4104 55.6064 90.3329 55.6322 90.2693 55.6799L81.211 62.25C81.1482 62.3014 81.0701 62.3306 80.989 62.333C80.9079 62.3355 80.8282 62.311 80.7625 62.2634C80.6967 62.2158 80.6485 62.1478 80.6254 62.07C80.6024 61.9922 80.6057 61.9089 80.6349 61.8332L84.0915 51.1937C84.1188 51.1191 84.1203 51.0376 84.0959 50.9621C84.0715 50.8865 84.0224 50.8213 83.9567 50.7769L74.9106 44.1946C74.8444 44.1507 74.7942 44.0866 74.7675 44.0117C74.7408 43.9369 74.739 43.8554 74.7625 43.7795C74.786 43.7036 74.8334 43.6374 74.8976 43.5907C74.9619 43.544 75.0395 43.5193 75.119 43.5205H86.3224C86.4005 43.5179 86.4761 43.492 86.5395 43.4461C86.6028 43.4002 86.651 43.3365 86.6778 43.263L90.1345 32.6113C90.1675 32.5526 90.2156 32.5038 90.2738 32.4698C90.3319 32.4359 90.3981 32.418 90.4654 32.418C90.5328 32.418 90.5989 32.4359 90.657 32.4698C90.7152 32.5038 90.7633 32.5526 90.7964 32.6113Z" fill="#FDB61C"/>
</svg>
