<?xml version="1.0" encoding="UTF-8"?><svg xmlns="http://www.w3.org/2000/svg" width="209" height="51" fill="none" xmlns:v="https://vecta.io/nano"><path d="M97.1 18.84h4.74V21h-7.56V6.88h2.82v11.96zm11.538-9.06c1.08 0 2.047.227 2.9.68a4.94 4.94 0 0 1 2.04 1.98c.494.853.74 1.86.74 3.02s-.246 2.167-.74 3.02a5.11 5.11 0 0 1-2.04 1.98c-.853.453-1.82.68-2.9.68s-2.053-.227-2.92-.68c-.853-.467-1.526-1.127-2.02-1.98s-.74-1.86-.74-3.02.247-2.167.74-3.02a4.98 4.98 0 0 1 2.02-1.98c.867-.453 1.84-.68 2.92-.68zm0 2.44a2.69 2.69 0 0 0-2 .84c-.546.547-.82 1.347-.82 2.4s.274 1.86.82 2.42a2.72 2.72 0 0 0 2 .82c.787 0 1.454-.273 2-.82.547-.56.82-1.367.82-2.42s-.273-1.853-.82-2.4c-.546-.56-1.213-.84-2-.84zm14.273-2.46c1.28 0 2.3.42 3.06 1.26s1.14 2.02 1.14 3.54V21h-2.8v-6.12c0-.88-.226-1.56-.68-2.04-.453-.493-1.073-.74-1.86-.74-.8 0-1.44.26-1.92.78s-.72 1.267-.72 2.24V21h-2.82V9.92h2.82v2.22a3.5 3.5 0 0 1 1.44-1.74c.68-.427 1.46-.64 2.34-.64zm17.102 5.28a5.4 5.4 0 0 1-.1.96h-8.12c.04.987.306 1.713.8 2.18s1.106.7 1.84.7c.653 0 1.193-.16 1.62-.48a2.11 2.11 0 0 0 .84-1.3h2.98a4.77 4.77 0 0 1-.94 2.08c-.48.613-1.1 1.093-1.86 1.44-.747.347-1.58.52-2.5.52-1.08 0-2.04-.227-2.88-.68a4.91 4.91 0 0 1-1.96-1.98c-.467-.853-.7-1.86-.7-3.02s.233-2.167.7-3.02c.466-.867 1.12-1.527 1.96-1.98s1.8-.68 2.88-.68c1.093 0 2.046.227 2.86.68.826.453 1.46 1.08 1.899 1.88.454.787.681 1.687.681 2.7zm-2.84-.28c.04-.907-.2-1.593-.72-2.06-.507-.467-1.134-.7-1.88-.7-.76 0-1.4.233-1.92.7s-.807 1.153-.86 2.06h5.38zm8.661-4.98c1.347 0 2.427.34 3.24 1.02s1.32 1.587 1.52 2.72h-2.64c-.106-.533-.346-.96-.72-1.28s-.86-.48-1.46-.48c-.48 0-.853.113-1.12.34s-.4.533-.4.92c0 .307.107.553.32.74s.48.333.8.44.78.233 1.38.38c.84.187 1.52.387 2.04.6a3.18 3.18 0 0 1 1.36.98c.387.44.58 1.04.58 1.8 0 .947-.373 1.713-1.12 2.3-.733.587-1.726.88-2.98.88-1.44 0-2.593-.32-3.46-.96-.866-.653-1.393-1.58-1.58-2.78h2.7a1.86 1.86 0 0 0 .72 1.3c.414.307.954.46 1.62.46.48 0 .847-.113 1.1-.34.254-.24.38-.547.38-.92a.99.99 0 0 0-.34-.78c-.213-.2-.486-.353-.82-.46-.32-.107-.78-.233-1.38-.38l-2.02-.56a3.4 3.4 0 0 1-1.32-.94c-.36-.427-.54-1.013-.54-1.76a2.88 2.88 0 0 1 1.1-2.34c.734-.6 1.747-.9 3.04-.9zm12.121 0c1.08 0 2.046.227 2.9.68a4.95 4.95 0 0 1 2.04 1.98c.493.853.74 1.86.74 3.02s-.247 2.167-.74 3.02a5.12 5.12 0 0 1-2.04 1.98c-.854.453-1.82.68-2.9.68s-2.054-.227-2.92-.68a5.14 5.14 0 0 1-2.02-1.98c-.494-.853-.74-1.86-.74-3.02s.246-2.167.74-3.02a4.97 4.97 0 0 1 2.02-1.98c.866-.453 1.84-.68 2.92-.68zm0 2.44c-.787 0-1.454.28-2 .84-.547.547-.82 1.347-.82 2.4s.273 1.86.82 2.42c.546.547 1.213.82 2 .82a2.72 2.72 0 0 0 2-.82c.546-.56.82-1.367.82-2.42s-.274-1.853-.82-2.4a2.69 2.69 0 0 0-2-.84zm21.773-2.46c1.346 0 2.406.42 3.18 1.26.786.827 1.18 2.007 1.18 3.54V21h-2.8v-6.12c0-.853-.22-1.507-.66-1.96-.427-.467-1.02-.7-1.78-.7-.787 0-1.414.247-1.88.74s-.7 1.213-.7 2.16V21h-2.8v-6.12c0-.853-.22-1.507-.66-1.96-.427-.467-1.02-.7-1.78-.7-.787 0-1.414.247-1.88.74s-.7 1.213-.7 2.16V21h-2.82V9.92h2.82v2.1c.293-.72.753-1.273 1.38-1.66.64-.4 1.38-.6 2.22-.6.893 0 1.666.213 2.32.64.666.427 1.166 1.04 1.5 1.84.346-.76.86-1.36 1.54-1.8.693-.453 1.466-.68 2.32-.68zm17.257 5.28a5.31 5.31 0 0 1-.1.96h-8.12c.04.987.307 1.713.8 2.18s1.107.7 1.84.7c.653 0 1.193-.16 1.62-.48a2.11 2.11 0 0 0 .84-1.3h2.98a4.77 4.77 0 0 1-.94 2.08c-.48.613-1.1 1.093-1.86 1.44-.747.347-1.58.52-2.5.52-1.08 0-2.04-.227-2.88-.68-.84-.467-1.493-1.127-1.96-1.98s-.7-1.86-.7-3.02.233-2.167.7-3.02c.467-.867 1.12-1.527 1.96-1.98s1.8-.68 2.88-.68c1.093 0 2.047.227 2.86.68.827.453 1.46 1.08 1.9 1.88.453.787.68 1.687.68 2.7zm-2.84-.28c.04-.907-.2-1.593-.72-2.06-.507-.467-1.133-.7-1.88-.7-.76 0-1.4.233-1.92.7s-.807 1.153-.86 2.06h5.38zM97.1 36.84h4.74V39h-7.56V24.88h2.82v11.96zm10.758-9.06c.934 0 1.734.22 2.4.66a3.59 3.59 0 0 1 1.42 1.78v-2.3h2.8V39h-2.8v-2.32a3.7 3.7 0 0 1-1.42 1.8c-.666.44-1.466.66-2.4.66s-1.773-.227-2.52-.68-1.333-1.107-1.76-1.96c-.413-.867-.62-1.88-.62-3.04s.207-2.167.62-3.02c.427-.867 1.014-1.527 1.76-1.98s1.587-.68 2.52-.68zm.88 2.46c-.88 0-1.586.287-2.12.86s-.8 1.36-.8 2.36.267 1.787.8 2.36c.534.56 1.24.84 2.12.84.854 0 1.554-.287 2.1-.86.56-.587.84-1.367.84-2.34 0-.987-.28-1.767-.84-2.34-.546-.587-1.246-.88-2.1-.88zm14.916-2.46c.933 0 1.773.227 2.52.68s1.327 1.113 1.74 1.98c.427.853.64 1.86.64 3.02s-.213 2.173-.64 3.04c-.413.853-.993 1.507-1.74 1.96s-1.587.68-2.52.68-1.733-.22-2.4-.66a3.74 3.74 0 0 1-1.4-1.8V39h-2.82V24.2h2.82v6.02a3.63 3.63 0 0 1 1.4-1.78c.667-.44 1.467-.66 2.4-.66zm-.88 2.46c-.853 0-1.56.293-2.12.88-.547.573-.82 1.353-.82 2.34 0 .973.273 1.753.82 2.34.56.573 1.267.86 2.12.86.88 0 1.587-.28 2.12-.84.533-.573.8-1.36.8-2.36s-.267-1.787-.8-2.36-1.24-.86-2.12-.86zm11.596-2.46c1.346 0 2.426.34 3.24 1.02s1.32 1.587 1.52 2.72h-2.64c-.107-.533-.347-.96-.72-1.28s-.86-.48-1.46-.48c-.48 0-.854.113-1.12.34s-.4.533-.4.92c0 .307.106.553.32.74s.48.333.8.44.78.233 1.38.38c.84.187 1.52.387 2.04.6.533.2.986.527 1.36.98.386.44.58 1.04.58 1.8 0 .947-.374 1.713-1.12 2.3-.734.587-1.727.88-2.98.88-1.44 0-2.594-.32-3.46-.96-.867-.653-1.394-1.58-1.58-2.78h2.7c.066.547.306.98.72 1.3.413.307.953.46 1.62.46.48 0 .846-.113 1.1-.34.253-.24.38-.547.38-.92 0-.32-.114-.58-.34-.78-.214-.2-.487-.353-.82-.46-.32-.107-.78-.233-1.38-.38l-2.02-.56c-.507-.2-.947-.513-1.32-.94-.36-.427-.54-1.013-.54-1.76 0-.96.366-1.74 1.1-2.34s1.746-.9 3.04-.9z" fill="#1e1e1e"/><g clip-path="url(#A)" fill="#85c225"><path d="M67.165 28.134c1.203-3.712-.21-8.064-3.513-10.535-1.167-.855-2.551.157-3.553.761-1.163.884-2.937 1.776-2.628 3.395.129 2.832-.165 5.691.129 8.512 1.002 1.215 2.374 2.162 3.831 2.9.657.36 1.55.506 2.189.022 1.799-1.234 2.914-3.126 3.545-5.055zm-8.485 9.319c.942-.546 1.303-1.885.297-2.536-1.227-.884-2.495-1.79-3.956-2.332-1.698.152-3.146 1.088-4.716 1.623-.929.44-2.164.648-2.68 1.565-.458 1.529-.382 3.137-.434 4.705.66.372 1.296.965 2.145.761 3.432-.392 6.663-1.841 9.343-3.785zm.465-21.756c.849-.684.37-1.866-.463-2.373-2.68-1.932-5.903-3.388-9.323-3.785-.865-.203-1.517.379-2.177.771.073 1.579-.024 3.199.459 4.731.531.866 1.71 1.081 2.616 1.507 1.577.55 3.045 1.463 4.752 1.637 1.533-.567 2.897-1.507 4.137-2.489zm-4.332 13.259c.197-2.151.064-4.323.076-6.482.128-1.106-.938-1.855-1.955-2.216l-5.666-2.177c-1.469-.535-2.591.707-3.662 1.398-1.067.867-2.495 1.467-3.203 2.631a38.94 38.94 0 0 0 .004 6.569c.737 1.157 2.149 1.765 3.227 2.635 1.006.626 1.971 1.747 3.34 1.445 1.77-.502 3.408-1.321 5.142-1.921 1.018-.422 2.354-.786 2.696-1.882zm-10.645 9.66c.085-1.07.427-2.187.125-3.242-.994-1.143-2.366-1.954-3.553-2.915-.721-.502-1.617-1.35-2.591-.819-1.602.812-3.099 1.79-4.567 2.781-.906.538-.914 1.801-.153 2.449 2.16 2.176 5.034 3.715 8.056 4.709.765.291 1.742-.007 2.121-.68.378-.71.418-1.514.563-2.282zm.125-23.222c.306-1.605-.161-3.268-.427-4.869-.121-.982-1.324-1.754-2.374-1.328-3.038.986-5.907 2.544-8.08 4.723-.756.652-.72 1.911.181 2.442l4.563 2.78c.966.528 1.847-.312 2.563-.808 1.195-.968 2.571-1.79 3.573-2.94zm-7.219 13.508c.165-1.896.025-3.799.076-5.699-.052-.735.157-1.714-.679-2.162-1.417-.826-2.962-1.452-4.463-2.143-.781-.375-1.891-.557-2.567.087-1.794 1.7-2.591 4.09-2.773 6.394.161 2.227.93 4.513 2.568 6.223.519.611 1.485.786 2.244.465 1.449-.553 2.829-1.252 4.226-1.903.547-.302 1.303-.6 1.368-1.263zm-13.209-1.568l.004-3.905c-1.641.408-3.235.954-4.8 1.555.193.331.181.829.607 1 1.325.608 2.769.972 4.189 1.351z"/><g fill-rule="evenodd"><path d="M68.964 37.571c.174-.4.145-.811-.002-1.198-.144-.38-.393-.745-.687-1.071l-6.423 4.482-5.884 4.109c-1.123.782-2.169 1.676-3.079 2.672a14.53 14.53 0 0 0-2.157 3.051l-.017.033-.036.053.087.365.024.099c1.027.36 2.111.372 3.192.194 1.319-.218 2.652-.722 3.89-1.247 1.559-.681 2.996-1.598 4.289-2.687 1.366-1.15 2.577-2.496 3.606-3.963l.877-1.221c.867-1.189 1.741-2.383 2.319-3.673zm-7.058-27.026l6.666 4.654c.357-.377.668-.772.752-1.196l.015-.061c.221-.83-.401-1.771-.954-2.613l-.145-.219-.398-.577c-1.716-2.492-3.466-5.033-5.843-6.847a18.92 18.92 0 0 0-4.117-2.424A16.96 16.96 0 0 0 53.463.029h-.015c-.743-.113-1.556.123-2.357.371l-.009.034-.095.351.035.061c.577 1.115 1.316 2.146 2.17 3.084.92 1.012 1.965 1.91 3.082 2.686l5.633 3.929zm7.741 10.874l-.428-1.318a10.56 10.56 0 0 1 1.559-.325c.789-.099 1.59-.096 2.378.05l.015.004c1.382.238 2.781.568 4.083 1.06 1.266.479 2.442 1.113 3.419 1.966l.008.005c.486.418 1.175 1.004 1.181 2.695.005 1.431-1.144 2.373-1.692 2.789-.618.468-1.354.849-2.071 1.177-1.53.65-3.194 1.185-4.863 1.399-1.356.174-2.721.138-4.028-.221.129-.488.301-.98.474-1.471.382-1.087.764-2.175.79-3.408.14-1.591-.342-2.996-.825-4.401zM43.404 2.686l-8.405.521-11.735.727 11.735.728 8.405.522V2.686zM31.772 7.953l-8.405.522-11.736.727 11.736.728 8.405.522V7.953zm-11.631 5.262l-8.405.521L0 14.463l11.736.728 8.405.521v-2.498zm24.242 34.738l-8.405.522-11.736.727 11.736.728 8.405.521v-2.498zM26.788 34.179l-8.405.522-11.736.727 11.736.727 8.405.521v-2.498z"/></g></g><defs><clipPath id="A"><path fill="#fff" d="M0 0h82v50.535H0z"/></clipPath></defs></svg>