<svg width="26" height="26" viewBox="0 0 26 26" fill="none" xmlns="http://www.w3.org/2000/svg">
<path d="M15.8472 25.7497C15.153 25.7497 14.5014 25.4239 13.963 25.1405C13.623 24.9705 13.2122 24.758 12.9997 24.758C12.7872 24.758 12.3622 24.9705 12.0363 25.1405C11.3563 25.4947 10.5064 25.9197 9.59968 25.6789C8.66468 25.438 8.15468 24.6164 7.72968 23.9647C7.54552 23.6672 7.29052 23.2705 7.12052 23.1714C6.95052 23.0722 6.49718 23.058 6.11468 23.0297C5.34968 22.9872 4.40052 22.9447 3.72052 22.2788C3.04052 21.5847 2.99802 20.6355 2.95552 19.8705C2.94135 19.5022 2.91302 19.0347 2.81385 18.8647C2.72885 18.7088 2.31802 18.4538 2.03468 18.2697C1.38302 17.8447 0.575516 17.3205 0.320516 16.3997C0.0796828 15.493 0.504683 14.643 0.85885 13.963C1.02885 13.623 1.24135 13.2122 1.24135 12.9997C1.24135 12.7872 1.02885 12.3622 0.85885 12.0363C0.504683 11.3563 0.0796828 10.5064 0.320516 9.59968C0.561349 8.66468 1.38302 8.15468 2.03468 7.72968C2.33218 7.54552 2.72885 7.29052 2.82802 7.12052C2.92718 6.95052 2.94135 6.49718 2.96968 6.11468C3.01218 5.34968 3.05468 4.40052 3.72052 3.72052C4.41468 3.04052 5.36385 2.99802 6.12885 2.95552C6.49718 2.94135 6.96468 2.91302 7.13468 2.81385C7.29052 2.72885 7.54552 2.31802 7.72968 2.03468C8.15468 1.38302 8.67885 0.575516 9.59968 0.320516C10.5064 0.0796828 11.3563 0.504683 12.0363 0.85885C12.3763 1.02885 12.7872 1.24135 12.9997 1.24135C13.2122 1.24135 13.6372 1.02885 13.963 0.85885C14.643 0.51885 15.493 0.0796828 16.3997 0.320516C17.3347 0.561349 17.8447 1.38302 18.2697 2.03468C18.4538 2.33218 18.7088 2.72885 18.8788 2.82802C19.0488 2.92718 19.5022 2.94135 19.8847 2.96968C20.6497 3.01218 21.5989 3.05468 22.2788 3.72052C22.9588 4.41468 23.0014 5.36385 23.0439 6.12885C23.058 6.49718 23.0864 6.96468 23.1855 7.13468C23.2705 7.29052 23.6814 7.54552 23.9647 7.72968C24.6164 8.15468 25.4239 8.67885 25.6789 9.59968C25.9197 10.5064 25.4947 11.3563 25.1405 12.0363C24.9705 12.3763 24.758 12.7872 24.758 12.9997C24.758 13.2122 24.9705 13.6372 25.1405 13.963C25.4947 14.643 25.9197 15.493 25.6789 16.3997C25.438 17.3347 24.6164 17.8447 23.9647 18.2697C23.6672 18.4538 23.2705 18.7088 23.1714 18.8788C23.0722 19.0488 23.058 19.5022 23.0297 19.8847C22.9872 20.6497 22.9447 21.5989 22.2788 22.2788C21.5847 22.9588 20.6355 23.0014 19.8705 23.0439C19.5022 23.058 19.0347 23.0864 18.8647 23.1855C18.7088 23.2705 18.4538 23.6814 18.2697 23.9647C17.8447 24.6164 17.3205 25.4239 16.3997 25.6789C16.2155 25.7355 16.0314 25.7497 15.8472 25.7497ZM10.1664 2.37468C10.1664 2.37468 10.1664 2.37468 10.1522 2.37468C10.0105 2.43135 9.68468 2.91302 9.52885 3.18218C9.18885 3.70635 8.80635 4.30135 8.19718 4.65552C7.57385 5.00968 6.86552 5.05218 6.22802 5.08052C5.91635 5.09468 5.33552 5.12302 5.20802 5.22218C5.12302 5.33552 5.09468 5.90218 5.08052 6.21385C5.05218 6.85135 5.00968 7.55968 4.65552 8.16885C4.30135 8.77802 3.70635 9.16052 3.18218 9.50052C2.91302 9.67052 2.43135 9.98218 2.37468 10.138C2.36052 10.2938 2.60135 10.7755 2.74302 11.0589C3.02635 11.6255 3.36635 12.263 3.36635 12.9855C3.36635 13.708 3.04052 14.3455 2.74302 14.9122C2.60135 15.1955 2.34635 15.6772 2.37468 15.833C2.43135 15.9747 2.91302 16.3005 3.18218 16.4564C3.70635 16.7963 4.30135 17.1789 4.65552 17.788C5.00968 18.4114 5.05218 19.1197 5.08052 19.7572C5.09468 20.0689 5.12302 20.6497 5.22218 20.7772C5.33552 20.8622 5.90218 20.8905 6.21385 20.9047C6.85135 20.933 7.55968 20.9755 8.16885 21.3297C8.77802 21.6838 9.16052 22.2789 9.50052 22.803C9.67052 23.0722 9.98218 23.5539 10.138 23.6105C10.2797 23.653 10.7755 23.3839 11.0589 23.2422C11.6255 22.9589 12.263 22.6189 12.9855 22.6189C13.708 22.6189 14.3455 22.9447 14.9122 23.2422C15.1955 23.3839 15.6489 23.653 15.833 23.6105C15.9747 23.5539 16.3005 23.0722 16.4564 22.803C16.7963 22.2789 17.1789 21.6838 17.788 21.3297C18.4114 20.9755 19.1197 20.933 19.7572 20.9047C20.0689 20.8905 20.6497 20.8622 20.7772 20.763C20.8622 20.6497 20.8905 20.083 20.9047 19.7714C20.933 19.1339 20.9755 18.4255 21.3297 17.8163C21.6838 17.2072 22.2789 16.8247 22.803 16.4847C23.0722 16.3147 23.5539 16.003 23.6105 15.8472C23.6247 15.6913 23.3839 15.2097 23.2422 14.9263C22.9589 14.3597 22.6189 13.7222 22.6189 12.9997C22.6189 12.2772 22.9447 11.6397 23.2422 11.073C23.3839 10.7897 23.6247 10.308 23.6105 10.1522C23.5539 9.99635 23.058 9.68468 22.803 9.51468C22.2789 9.17468 21.6838 8.79218 21.3297 8.18302C20.9755 7.55968 20.933 6.85135 20.9047 6.21385C20.8905 5.90218 20.8622 5.32135 20.763 5.19385C20.6497 5.10885 20.083 5.08052 19.7714 5.06635C19.1339 5.03802 18.4255 4.99552 17.8163 4.64135C17.2072 4.28718 16.8247 3.69218 16.4847 3.16802C16.3147 2.89885 16.003 2.41718 15.8472 2.36052C15.7055 2.31802 15.2097 2.58718 14.9263 2.72885C14.3597 3.01218 13.7222 3.35218 12.9997 3.35218C12.2772 3.35218 11.6397 3.02635 11.073 2.72885C10.7897 2.58718 10.3364 2.36052 10.1664 2.36052V2.37468ZM10.8605 17.9722C10.5772 17.9722 10.308 17.8589 10.1097 17.6605L6.55385 14.1047C6.14302 13.6938 6.14302 13.0139 6.55385 12.603C6.96468 12.1922 7.64468 12.1922 8.05552 12.603L10.8605 15.408L17.9297 8.33885C18.3405 7.92802 19.0205 7.92802 19.4314 8.33885C19.8422 8.74968 19.8422 9.42968 19.4314 9.84052L11.6114 17.6605C11.413 17.8589 11.1439 17.9722 10.8605 17.9722Z" fill="#85C225"/>
</svg>
