<svg width="50" height="50" viewBox="0 0 50 50" fill="none" xmlns="http://www.w3.org/2000/svg">
<path d="M42.1407 19.8965C41.2445 18.834 39.9522 18.2298 38.5557 18.2298H30.1558V12.5007C30.1558 9.33398 27.5921 6.77148 24.2571 6.77148C22.7981 6.77148 21.485 7.64648 20.9013 9.00065L15.6071 21.3548H11.7094C8.97893 21.3548 6.76953 23.5632 6.76953 26.2923V38.3131C6.76953 41.0215 8.99977 43.2298 11.7094 43.2298H35.8043C38.0763 43.2298 40.0147 41.6048 40.4107 39.3548L43.1621 23.7298C43.3913 22.3548 43.0162 20.959 42.1199 19.8965H42.1407ZM11.7094 40.1048C10.7089 40.1048 9.89604 39.2923 9.89604 38.3131V26.2923C9.89604 25.2923 10.7089 24.4798 11.7094 24.4798H15.0652V40.1048H11.7094ZM37.3468 38.8131C37.2217 39.5631 36.5756 40.1048 35.8043 40.1048H18.2125V23.2298L23.7777 10.209C23.8611 10.0215 24.0487 9.87565 24.4447 9.87565C25.8829 9.87565 27.0293 11.0423 27.0293 12.4798V21.334H38.5557C39.0351 21.334 39.4519 21.5215 39.7437 21.8757C40.0356 22.2298 40.1606 22.6882 40.0772 23.1673L37.3259 38.7923L37.3468 38.8131Z" fill="#4361EE"/>
</svg>
