<svg width="50" height="50" viewBox="0 0 50 50" fill="none" xmlns="http://www.w3.org/2000/svg">
<path d="M37.8529 9.24805H35.0612C32.957 9.24805 31.2487 10.9564 31.2487 13.0605V13.998L11.457 18.248V17.1855C11.457 16.3314 10.7487 15.623 9.89453 15.623C9.04036 15.623 8.33203 16.3314 8.33203 17.1855V31.7689C8.33203 32.623 9.04036 33.3314 9.89453 33.3314C10.7487 33.3314 11.457 32.623 11.457 31.7689V30.4564L31.2487 34.7064V35.6439C31.2487 37.748 32.957 39.4564 35.0612 39.4564H37.8529C39.957 39.4564 41.6654 37.748 41.6654 35.6439V13.0605C41.6654 10.9564 39.957 9.24805 37.8529 9.24805V9.24805ZM11.457 27.248V21.4355L31.2487 17.1855V31.498L11.457 27.248V27.248ZM38.5404 35.6439C38.5404 36.0189 38.2279 36.3314 37.8529 36.3314H35.0612C34.6862 36.3314 34.3737 36.0189 34.3737 35.6439V13.0605C34.3737 12.6855 34.6862 12.373 35.0612 12.373H37.8529C38.2279 12.373 38.5404 12.6855 38.5404 13.0605V35.6439ZM27.0195 36.7272C26.2487 39.1439 24.0195 40.7689 21.457 40.7689C18.2487 40.7689 15.6237 38.1855 15.6237 35.0397C15.6237 34.8105 15.6237 34.5605 15.6654 34.3314C15.7695 33.4772 16.5612 32.873 17.4154 32.9772C18.2695 33.0814 18.8737 33.8522 18.7695 34.7064C18.7695 34.8105 18.7695 34.9147 18.7695 35.0189C18.7695 36.4564 19.9779 37.623 21.4779 37.623C22.6654 37.623 23.707 36.873 24.0612 35.7689C24.3112 34.9355 25.207 34.4772 26.0195 34.748C26.8529 34.998 27.2904 35.8939 27.0404 36.7064L27.0195 36.7272Z" fill="#4361EE"/>
</svg>
