<svg width="32" height="32" viewBox="0 0 32 32" fill="none" xmlns="http://www.w3.org/2000/svg">
<path d="M9.92503 27.0008H5.3638V12.3121H9.92503V27.0008ZM7.64167 10.3085C6.18333 10.3085 5 9.1 5 7.64167C5 6.18333 6.18254 5 7.64167 5C9.10079 5 10.2833 6.18254 10.2833 7.64167C10.2833 9.1 9.1 10.3085 7.64167 10.3085ZM26.9961 27.0008H22.4451V19.8505C22.4451 18.1463 22.4105 15.9611 20.0737 15.9611C17.7023 15.9611 17.3385 17.8123 17.3385 19.728V27.0008H12.782V12.3121H17.1562V14.3158H17.2199C17.8288 13.1615 19.3162 11.9436 21.5352 11.9436C26.1514 11.9436 27 14.9836 27 18.932V27.0008H26.9961Z" fill="#3A0CA3"/>
</svg>
