<svg width="32" height="32" viewBox="0 0 32 32" fill="none" xmlns="http://www.w3.org/2000/svg">
<path fill-rule="evenodd" clip-rule="evenodd" d="M26.362 10.7849C26.371 11.0181 26.3741 11.2512 26.3741 11.4844C26.3741 18.554 21.4009 26.7154 12.3068 26.7154C9.51327 26.7154 6.91567 25.8251 4.72705 24.3094C5.11393 24.3518 5.50684 24.3837 5.90577 24.3837C8.22201 24.3837 10.3554 23.525 12.0476 22.0835C9.88407 22.0517 8.05722 20.4936 7.42716 18.3738C7.72963 18.4374 8.04112 18.4693 8.35966 18.4693C8.80884 18.4693 9.24495 18.4058 9.66298 18.2786C7.399 17.791 5.69375 15.6288 5.69375 13.0321C5.69375 13.0003 5.69375 12.9896 5.69375 12.9684C6.36098 13.3606 7.12467 13.6042 7.93561 13.636C6.60716 12.6715 5.73392 11.0287 5.73392 9.17384C5.73392 8.19872 5.9771 7.27656 6.40517 6.48163C8.843 9.72495 12.4877 11.8554 16.5966 12.078C16.5122 11.6858 16.469 11.2726 16.469 10.8592C16.469 7.90204 18.6827 5.50659 21.414 5.50659C22.8359 5.50659 24.1201 6.15323 25.0215 7.19194C26.15 6.95876 27.2071 6.51363 28.1637 5.89888C27.7929 7.14958 27.0101 8.19867 25.9872 8.85582C26.988 8.72863 27.9427 8.44267 28.828 8.0187C28.1638 9.08921 27.3277 10.0324 26.362 10.7849Z" fill="#3A0CA3"/>
</svg>
