<svg xmlns="http://www.w3.org/2000/svg" width="20" height="20" viewBox="0 0 20 20" fill="none">
    <path d="M5.5 14.5C5.5 12.0147 7.51472 10 10 10C12.4853 10 14.5 12.0147 14.5 14.5" stroke="#2B2B2B" stroke-width="1.6" stroke-linecap="round"/>
    <path d="M10.0008 9.99961C11.492 9.99961 12.7008 8.79082 12.7008 7.29961C12.7008 5.80844 11.492 4.59961 10.0008 4.59961C8.50957 4.59961 7.30078 5.80844 7.30078 7.29961C7.30078 8.79082 8.50957 9.99961 10.0008 9.99961Z" stroke="#2B2B2B" stroke-width="1.6" stroke-linecap="round" stroke-linejoin="round"/>
    <path d="M10 19C14.9706 19 19 14.9706 19 10C19 5.02944 14.9706 1 10 1C5.02944 1 1 5.02944 1 10C1 14.9706 5.02944 19 10 19Z" stroke="#2B2B2B" stroke-width="1.6"/>
</svg>